#!OML:ASF F:\VICON\USERDATA\INSTALL\rory3\rory3.ASF
:FULLY-SPECIFIED
:DEGREES
89
root 0.7032892033354351 17.598485402814102 36.24863505489063 1.7849999331223976 0.4372754481704939 -0.44110013721433294
lfemur -21.517088143496153 4.173450244407379 -17.482210471038144
ltibia 89.57484918949933
lfoot -0.03805762871865426 -12.73656007391288
ltoes -9.596683745968239
rfemur -20.887109636455104 5.8548381982967985 31.765901446044545
rtibia 75.93726484307665
rfoot 1.6777709731380686 -4.172479395335712
rtoes 1.5266116512618269
lowerback 15.455600395280175 -0.06349672947888269 1.4812545592000297
upperback -0.39710553747341837 1.5987242919213627 2.1703957187383427
thorax -9.622295866904725 0.4024716463758976 -0.11459770779363682
lowerneck -20.335620200930634 -4.383167517588438 -1.9198199711668442
upperneck 15.354666102358227 -6.010074516075484 2.629642121217959
head 8.266019328282983 -2.749028941344098 0.5061449562630795
lclavicle -1.9521729781560437e-15 1.1013548979497733e-15
lhumerus -52.388457072425616 -7.712467129869746 98.06041683410051
lradius 109.59972938998736
lwrist 46.16552078039284
lhand -17.605484051502497 6.396985557352148
lfingers 7.125020000000001
lthumb 8.501256363468782 36.32086667427075
rclavicle -1.952176533109819e-15 1.1013521049827522e-15
rhumerus -48.49977328273414 12.397153550763571 -100.80603036376561
rradius 112.83555009179409
rwrist -15.630217243197496
rhand -24.289018130722923 -103.37618498496465
rfingers 7.125020000000001
rthumb 3.465279162940512 15.512345176818917
90
root 0.7086014551134964 17.644686665059897 36.35311824173137 1.9156438447158006 0.8051340380165444 -0.6075850362394661
lfemur -23.967743206339904 4.023307911457036 -17.82453968976265
ltibia 89.51518505096283
lfoot -1.9034308247566434 -12.662955969791476
ltoes -9.166124079844975
rfemur -19.61002556779945 6.010876056746149 32.09110326119845
rtibia 74.31389211324321
rfoot 1.3782537290344576 -4.457198521350816
rtoes 1.3233483107851034
lowerback 15.387498447713352 -0.02578453639841194 1.6286274146801842
upperback -0.45119902182146454 1.838087498769508 2.144851007499504
thorax -9.605881276920073 0.49870867408225783 -0.22267162805811846
lowerneck -20.271096300536893 -4.403611272397785 -1.8870355693674872
upperneck 15.28577662174704 -6.19548441460477 2.6630429292110644
head 8.275608864958448 -2.7266574351745327 0.5130270816076805
lclavicle -1.9521729781560437e-15 1.1013548979497733e-15
lhumerus -53.786618814338574 -7.575062601039594 98.12104782354987
lradius 109.4095082275587
lwrist 46.340366887111735
lhand -17.45242784964655 6.515907359908333
lfingers 7.125020000000001
lthumb 8.538877856142502 36.37315500458731
rclavicle -1.952176533109819e-15 1.1013521049827522e-15
rhumerus -47.673560011533255 12.774076177346519 -100.7535676046757
rradius 112.96263483308057
rwrist -15.47900138799339
rhand -24.322778959674675 -106.27802523425335
rfingers 7.125020000000001
rthumb 3.199142688090767 14.851432119509493
91
root 0.7161075453202866 17.70280912756009 36.57587581037514 2.0686492951090547 1.237235909652204 -0.8183528383545182
lfemur -23.11827902139979 4.127315742019888 -17.3530560126883
ltibia 87.90310453333515
lfoot -1.077870709063829 -11.128592116303622
ltoes -8.946905563045997
rfemur -19.883705923227083 5.841119694955204 31.764602969582825
rtibia 71.80337563941241
rfoot 2.0769656807912744 -4.716918541025548
rtoes 0.9019840385854818
lowerback 15.316069959201588 0.04186211577908178 1.826370985698948
upperback -0.5379033764918462 2.018754126893289 2.079376990185402
thorax -9.680939548774607 0.5280542434025446 -0.5568951600328891
lowerneck -20.25528269589589 -4.4511038891588095 -1.861883786137838
upperneck 15.114799009483042 -6.448297239977182 2.662798746554011
head 8.283938753759518 -2.7194413795533743 0.5158010639931314
lclavicle -1.9521729781560437e-15 1.1013548979497733e-15
lhumerus -55.10988741884937 -7.463633659890002 98.15628903730216
lradius 109.62684815854291
lwrist 46.59617878448417
lhand -17.485267831023062 6.405561524657876
lfingers 7.125020000000001
lthumb 8.637307430462336 36.40090361669414
rclavicle -1.952176533109819e-15 1.1013521049827522e-15
rhumerus -46.83064722886707 13.203339381530046 -100.6715841381806
rradius 113.03727966020433
rwrist -15.772760600904443
rhand -24.24697084129474 -103.69355986461214
rfingers 7.125020000000001
rthumb 3.4361675855176332 15.086076415695866
92
root 0.7228516968641194 17.75953850186559 36.499904599710085 2.2019023592603846 1.6368116573674714 -1.0004178752295925
lfemur -25.149643263258284 3.6502534021688615 -18.338142534525925
ltibia 85.05556142774714
lfoot -0.9123774652889629 -10.452054827082623
ltoes -8.809866179720649
rfemur -19.180962829682073 5.475653691103125 31.38386718073306
rtibia 68.73631204190156
rfoot 2.3373104540295397 -5.1174624248725324
rtoes 0.6731741237703119
lowerback 15.168433536746083 0.09280660040309768 1.9757622033096074
upperback -0.6576992482421 2.1283786743016653 1.9839787504291266
thorax -9.61428283342132 0.6432697552449056 -0.6367246223805734
lowerneck -20.220476380274473 -4.496982058804617 -1.8359802667754488
upperneck 15.070109121258959 -6.64021080350649 2.726855614460779
head 8.277771335331984 -2.723531595285779 0.5143325921865783
lclavicle -1.9521729781560437e-15 1.1013548979497733e-15
lhumerus -55.819067458679974 -7.1598594911633535 98.2517017788493
lradius 110.0099704394354
lwrist 47.035722964724066
lhand -17.35497684370522 6.503548471341055
lfingers 7.125020000000001
lthumb 8.630425023421529 36.36650874751993
rclavicle -1.952176533109819e-15 1.1013521049827522e-15
rhumerus -46.007644896832176 13.676832405717585 -100.56587033244982
rradius 113.08926104334606
rwrist -16.13242254221251
rhand -24.127217628221846 -101.21453415498652
rfingers 7.125020000000001
rthumb 3.4646020196144316 15.155940670316227
93
root 0.7391809106181928 17.843837660197476 37.265720015252136 2.3831118404505807 2.188362505189688 -1.0175462722150261
lfemur -24.325601373154143 3.3756323646933604 -18.122979899578116
ltibia 81.26977409716015
lfoot -0.684143905415781 -10.48909710730548
ltoes -8.713976999452337
rfemur -19.308522655202676 5.174368004646352 30.827928443921323
rtibia 65.53897127451835
rfoot 2.4468264705968124 -5.345603233457901
rtoes 0.1434898962823321
lowerback 14.972438720837001 0.13938098626870937 2.1400932455263164
upperback -0.7782201190464435 2.213319198327661 1.8843869960446085
thorax -9.508163363364119 0.783765907874914 -0.6556003479816566
lowerneck -20.269725763230124 -4.660196213584362 -1.840965534733337
upperneck 14.929271847280347 -6.909868069693674 2.741092317163659
head 8.26280381530737 -2.743292084733139 0.5119384899701563
lclavicle -1.9521729781560437e-15 1.1013548979497733e-15
lhumerus -56.05405681899786 -6.958715304282385 98.35002068619671
lradius 110.56561187160543
lwrist 47.07685375419078
lhand -17.45050372661892 6.370593601254191
lfingers 7.125020000000001
lthumb 8.63270689991146 36.41426573984164
rclavicle -1.952176533109819e-15 1.1013521049827522e-15
rhumerus -45.174751710794474 14.216018567391782 -100.43078562323885
rradius 113.12349398401503
rwrist -16.344818985755186
rhand -24.377664210378892 -104.42670153575338
rfingers 7.125020000000001
rthumb 3.4292148127828606 14.940017866091104
94
root 0.7438416492254853 17.889535269141987 36.57961857332898 2.412852327744325 2.4046074204364114 -1.1431391400781319
lfemur -26.662659324922764 2.5632302232034947 -19.548504724955695
ltibia 76.8460363501653
lfoot -0.4847838128069535 -10.792034610671484
ltoes -8.491622592565955
rfemur -17.47391903795554 5.253321477802401 30.980757947262767
rtibia 62.63497195765818
rfoot 1.8035531851309368 -5.696408957243071
rtoes -0.36628895847938914
lowerback 14.731131796268523 0.16789483863572485 2.269446591207819
upperback -0.884461539131076 2.2759686805672033 1.77319260667185
thorax -9.546640499242539 0.771292440178702 -0.8894721997313866
lowerneck -20.189595352392274 -4.730286670107374 -1.8254375368928344
upperneck 14.965583716475896 -7.080230747448563 2.813149008052931
head 8.249196835263175 -2.784585005490272 0.5040461773923732
lclavicle -1.9521729781560437e-15 1.1013548979497733e-15
lhumerus -56.311421996258304 -6.913398377646618 98.31708882852924
lradius 110.91274005560005
lwrist 46.92726706542168
lhand -17.355733939363077 6.481847441860292
lfingers 7.125020000000001
lthumb 8.580401708316002 36.363886074404704
rclavicle -1.952176533109819e-15 1.1013521049827522e-15
rhumerus -44.41161152344132 14.786754718275382 -100.29911901751625
rradius 113.14231898171911
rwrist -16.145833566113577
rhand -24.40255382971929 -106.3540666149407
rfingers 7.125020000000001
rthumb 3.6252786484419506 14.937605502889841
